<svg id="visual" viewBox="0 0 900 600" width="900" height="600" xmlns="http://www.w3.org/2000/svg" xmlns:xlink="http://www.w3.org/1999/xlink" version="1.1"><path d="M0 496L100 496L100 516L200 516L200 536L300 536L300 533L400 533L400 496L500 496L500 551L600 551L600 514L700 514L700 572L800 572L800 543L900 543L900 540L900 601L900 601L800 601L800 601L700 601L700 601L600 601L600 601L500 601L500 601L400 601L400 601L300 601L300 601L200 601L200 601L100 601L100 601L0 601Z" fill="#9900ff"></path><path d="M0 526L100 526L100 572L200 572L200 573L300 573L300 513L400 513L400 543L500 543L500 570L600 570L600 515L700 515L700 570L800 570L800 540L900 540L900 536L900 601L900 601L800 601L800 601L700 601L700 601L600 601L600 601L500 601L500 601L400 601L400 601L300 601L300 601L200 601L200 601L100 601L100 601L0 601Z" fill="#8200d9"></path><path d="M0 575L100 575L100 571L200 571L200 588L300 588L300 539L400 539L400 568L500 568L500 536L600 536L600 532L700 532L700 534L800 534L800 539L900 539L900 560L900 601L900 601L800 601L800 601L700 601L700 601L600 601L600 601L500 601L500 601L400 601L400 601L300 601L300 601L200 601L200 601L100 601L100 601L0 601Z" fill="#6c00b4"></path><path d="M0 556L100 556L100 591L200 591L200 586L300 586L300 576L400 576L400 559L500 559L500 567L600 567L600 575L700 575L700 592L800 592L800 583L900 583L900 592L900 601L900 601L800 601L800 601L700 601L700 601L600 601L600 601L500 601L500 601L400 601L400 601L300 601L300 601L200 601L200 601L100 601L100 601L0 601Z" fill="#560090"></path></svg>